<mxfile host="app.diagrams.net" modified="2023-05-03T14:44:13.546Z" agent="Mozilla/5.0 (Windows NT 10.0; Win64; x64) AppleWebKit/537.36 (KHTML, like Gecko) Chrome/112.0.0.0 Safari/537.36" etag="fZD8m6d6lFTlsxI1lhkL" version="21.2.3" type="github">
  <diagram name="Page-1" id="JFZXwUpc7m3WlK-vvMf1">
    <mxGraphModel dx="1434" dy="806" grid="1" gridSize="10" guides="1" tooltips="1" connect="1" arrows="1" fold="1" page="1" pageScale="1" pageWidth="3300" pageHeight="2339" math="0" shadow="0">
      <root>
        <mxCell id="0" />
        <mxCell id="1" parent="0" />
        <mxCell id="-L8Xeif0qXsBXoIUvL3A-1" value="Grafana" style="rounded=0;whiteSpace=wrap;html=1;" vertex="1" parent="1">
          <mxGeometry x="410" y="770" width="120" height="60" as="geometry" />
        </mxCell>
        <mxCell id="-L8Xeif0qXsBXoIUvL3A-2" value="mongodb" style="shape=cylinder3;whiteSpace=wrap;html=1;boundedLbl=1;backgroundOutline=1;size=15;" vertex="1" parent="1">
          <mxGeometry x="280" y="327" width="60" height="80" as="geometry" />
        </mxCell>
        <mxCell id="-L8Xeif0qXsBXoIUvL3A-5" style="edgeStyle=orthogonalEdgeStyle;rounded=0;orthogonalLoop=1;jettySize=auto;html=1;entryX=0.5;entryY=1;entryDx=0;entryDy=0;entryPerimeter=0;" edge="1" parent="1" source="-L8Xeif0qXsBXoIUvL3A-3" target="-L8Xeif0qXsBXoIUvL3A-4">
          <mxGeometry relative="1" as="geometry">
            <mxPoint x="470" y="522" as="targetPoint" />
          </mxGeometry>
        </mxCell>
        <mxCell id="-L8Xeif0qXsBXoIUvL3A-6" style="edgeStyle=orthogonalEdgeStyle;rounded=0;orthogonalLoop=1;jettySize=auto;html=1;entryX=0.5;entryY=0;entryDx=0;entryDy=0;exitX=0.5;exitY=1;exitDx=0;exitDy=0;" edge="1" parent="1" source="-L8Xeif0qXsBXoIUvL3A-3" target="-L8Xeif0qXsBXoIUvL3A-1">
          <mxGeometry relative="1" as="geometry" />
        </mxCell>
        <mxCell id="-L8Xeif0qXsBXoIUvL3A-3" value="Zabbix" style="rounded=0;whiteSpace=wrap;html=1;" vertex="1" parent="1">
          <mxGeometry x="410" y="617" width="120" height="60" as="geometry" />
        </mxCell>
        <mxCell id="-L8Xeif0qXsBXoIUvL3A-4" value="postgress" style="shape=cylinder3;whiteSpace=wrap;html=1;boundedLbl=1;backgroundOutline=1;size=15;" vertex="1" parent="1">
          <mxGeometry x="440" y="455" width="60" height="80" as="geometry" />
        </mxCell>
        <mxCell id="-L8Xeif0qXsBXoIUvL3A-16" style="edgeStyle=orthogonalEdgeStyle;rounded=0;orthogonalLoop=1;jettySize=auto;html=1;entryX=1;entryY=0.5;entryDx=0;entryDy=0;entryPerimeter=0;exitX=0;exitY=0.5;exitDx=0;exitDy=0;" edge="1" parent="1" source="-L8Xeif0qXsBXoIUvL3A-15" target="-L8Xeif0qXsBXoIUvL3A-2">
          <mxGeometry relative="1" as="geometry" />
        </mxCell>
        <mxCell id="-L8Xeif0qXsBXoIUvL3A-17" style="edgeStyle=orthogonalEdgeStyle;rounded=0;orthogonalLoop=1;jettySize=auto;html=1;entryX=0.5;entryY=0;entryDx=0;entryDy=0;entryPerimeter=0;exitX=0.5;exitY=1;exitDx=0;exitDy=0;" edge="1" parent="1" source="-L8Xeif0qXsBXoIUvL3A-15" target="-L8Xeif0qXsBXoIUvL3A-4">
          <mxGeometry relative="1" as="geometry" />
        </mxCell>
        <mxCell id="-L8Xeif0qXsBXoIUvL3A-15" value="sync - 1min&lt;br&gt;&lt;br&gt;mongo para postgress" style="rounded=0;whiteSpace=wrap;html=1;" vertex="1" parent="1">
          <mxGeometry x="415" y="332" width="110" height="70" as="geometry" />
        </mxCell>
        <mxCell id="-L8Xeif0qXsBXoIUvL3A-20" style="edgeStyle=orthogonalEdgeStyle;rounded=0;orthogonalLoop=1;jettySize=auto;html=1;entryX=0.5;entryY=1;entryDx=0;entryDy=0;" edge="1" parent="1" source="-L8Xeif0qXsBXoIUvL3A-18" target="-L8Xeif0qXsBXoIUvL3A-19">
          <mxGeometry relative="1" as="geometry" />
        </mxCell>
        <mxCell id="-L8Xeif0qXsBXoIUvL3A-18" value="Grafana" style="rounded=0;whiteSpace=wrap;html=1;" vertex="1" parent="1">
          <mxGeometry x="1240" y="775" width="120" height="60" as="geometry" />
        </mxCell>
        <mxCell id="-L8Xeif0qXsBXoIUvL3A-19" value="Prometheus" style="rounded=0;whiteSpace=wrap;html=1;" vertex="1" parent="1">
          <mxGeometry x="1230" y="617" width="140" height="60" as="geometry" />
        </mxCell>
        <mxCell id="-L8Xeif0qXsBXoIUvL3A-23" style="edgeStyle=orthogonalEdgeStyle;rounded=0;orthogonalLoop=1;jettySize=auto;html=1;entryX=0.5;entryY=1;entryDx=0;entryDy=0;entryPerimeter=0;" edge="1" parent="1" source="-L8Xeif0qXsBXoIUvL3A-21" target="-L8Xeif0qXsBXoIUvL3A-22">
          <mxGeometry relative="1" as="geometry" />
        </mxCell>
        <mxCell id="-L8Xeif0qXsBXoIUvL3A-26" style="edgeStyle=orthogonalEdgeStyle;rounded=0;orthogonalLoop=1;jettySize=auto;html=1;entryX=0.5;entryY=0;entryDx=0;entryDy=0;" edge="1" parent="1" source="-L8Xeif0qXsBXoIUvL3A-21" target="-L8Xeif0qXsBXoIUvL3A-19">
          <mxGeometry relative="1" as="geometry" />
        </mxCell>
        <mxCell id="-L8Xeif0qXsBXoIUvL3A-21" value="sync&lt;br&gt;service" style="ellipse;shape=cloud;whiteSpace=wrap;html=1;" vertex="1" parent="1">
          <mxGeometry x="1240" y="447" width="120" height="80" as="geometry" />
        </mxCell>
        <mxCell id="-L8Xeif0qXsBXoIUvL3A-22" value="mongodb" style="shape=cylinder3;whiteSpace=wrap;html=1;boundedLbl=1;backgroundOutline=1;size=15;" vertex="1" parent="1">
          <mxGeometry x="1270" y="327" width="60" height="80" as="geometry" />
        </mxCell>
        <mxCell id="-L8Xeif0qXsBXoIUvL3A-27" value="&lt;b style=&quot;border-color: var(--border-color);&quot;&gt;default limite 15 dias&lt;/b&gt;" style="shape=note;whiteSpace=wrap;html=1;backgroundOutline=1;darkOpacity=0.05;size=13;fillColor=#fff2cc;strokeColor=#d6b656;" vertex="1" parent="1">
          <mxGeometry x="1350" y="572" width="130" height="70" as="geometry" />
        </mxCell>
        <mxCell id="-L8Xeif0qXsBXoIUvL3A-29" value="&lt;b style=&quot;border-color: var(--border-color);&quot;&gt;Como manipular query para consultas&lt;/b&gt;" style="shape=note;whiteSpace=wrap;html=1;backgroundOutline=1;darkOpacity=0.05;size=14;fillColor=#fff2cc;strokeColor=#d6b656;" vertex="1" parent="1">
          <mxGeometry x="270" y="567" width="160" height="78" as="geometry" />
        </mxCell>
        <mxCell id="-L8Xeif0qXsBXoIUvL3A-30" value="Grafana" style="rounded=0;whiteSpace=wrap;html=1;" vertex="1" parent="1">
          <mxGeometry x="826" y="775" width="120" height="60" as="geometry" />
        </mxCell>
        <mxCell id="-L8Xeif0qXsBXoIUvL3A-31" value="mongodb" style="shape=cylinder3;whiteSpace=wrap;html=1;boundedLbl=1;backgroundOutline=1;size=15;" vertex="1" parent="1">
          <mxGeometry x="857" y="327" width="60" height="80" as="geometry" />
        </mxCell>
        <mxCell id="-L8Xeif0qXsBXoIUvL3A-33" style="edgeStyle=orthogonalEdgeStyle;rounded=0;orthogonalLoop=1;jettySize=auto;html=1;entryX=0.5;entryY=0;entryDx=0;entryDy=0;exitX=0.5;exitY=1;exitDx=0;exitDy=0;" edge="1" source="-L8Xeif0qXsBXoIUvL3A-35" target="-L8Xeif0qXsBXoIUvL3A-30" parent="1">
          <mxGeometry relative="1" as="geometry" />
        </mxCell>
        <mxCell id="-L8Xeif0qXsBXoIUvL3A-43" style="edgeStyle=orthogonalEdgeStyle;rounded=0;orthogonalLoop=1;jettySize=auto;html=1;entryX=0.55;entryY=0.95;entryDx=0;entryDy=0;entryPerimeter=0;" edge="1" parent="1" source="-L8Xeif0qXsBXoIUvL3A-35" target="-L8Xeif0qXsBXoIUvL3A-38">
          <mxGeometry relative="1" as="geometry" />
        </mxCell>
        <mxCell id="-L8Xeif0qXsBXoIUvL3A-35" value="Zabbix" style="rounded=0;whiteSpace=wrap;html=1;" vertex="1" parent="1">
          <mxGeometry x="826" y="617" width="120" height="60" as="geometry" />
        </mxCell>
        <mxCell id="-L8Xeif0qXsBXoIUvL3A-37" style="edgeStyle=orthogonalEdgeStyle;rounded=0;orthogonalLoop=1;jettySize=auto;html=1;entryX=0.5;entryY=1;entryDx=0;entryDy=0;entryPerimeter=0;exitX=0.558;exitY=0.138;exitDx=0;exitDy=0;exitPerimeter=0;" edge="1" source="-L8Xeif0qXsBXoIUvL3A-38" target="-L8Xeif0qXsBXoIUvL3A-31" parent="1">
          <mxGeometry relative="1" as="geometry" />
        </mxCell>
        <mxCell id="-L8Xeif0qXsBXoIUvL3A-38" value="domain&lt;br&gt;API" style="ellipse;shape=cloud;whiteSpace=wrap;html=1;" vertex="1" parent="1">
          <mxGeometry x="820" y="450" width="120" height="77" as="geometry" />
        </mxCell>
        <mxCell id="-L8Xeif0qXsBXoIUvL3A-45" value="&lt;b&gt;Onerar o mongo&lt;/b&gt;" style="shape=note;whiteSpace=wrap;html=1;backgroundOutline=1;darkOpacity=0.05;size=12;fillColor=#f8cecc;strokeColor=#b85450;" vertex="1" parent="1">
          <mxGeometry x="767" y="398" width="90" height="70" as="geometry" />
        </mxCell>
        <mxCell id="-L8Xeif0qXsBXoIUvL3A-46" value="&lt;b&gt;Onerar o mongo&lt;/b&gt;" style="shape=note;whiteSpace=wrap;html=1;backgroundOutline=1;darkOpacity=0.05;size=11;fillColor=#f8cecc;strokeColor=#b85450;" vertex="1" parent="1">
          <mxGeometry x="1180" y="396" width="90" height="72" as="geometry" />
        </mxCell>
        <mxCell id="-L8Xeif0qXsBXoIUvL3A-47" value="" style="sketch=0;pointerEvents=1;shadow=0;dashed=0;html=1;strokeColor=none;fillColor=#434445;aspect=fixed;labelPosition=center;verticalLabelPosition=bottom;verticalAlign=top;align=center;outlineConnect=0;shape=mxgraph.vvd.nsx_dashboard;" vertex="1" parent="1">
          <mxGeometry x="500" y="765" width="75.27" height="70" as="geometry" />
        </mxCell>
        <mxCell id="-L8Xeif0qXsBXoIUvL3A-48" value="" style="sketch=0;pointerEvents=1;shadow=0;dashed=0;html=1;strokeColor=none;fillColor=#434445;aspect=fixed;labelPosition=center;verticalLabelPosition=bottom;verticalAlign=top;align=center;outlineConnect=0;shape=mxgraph.vvd.nsx_dashboard;" vertex="1" parent="1">
          <mxGeometry x="917" y="770" width="75.27" height="70" as="geometry" />
        </mxCell>
        <mxCell id="-L8Xeif0qXsBXoIUvL3A-49" value="" style="sketch=0;pointerEvents=1;shadow=0;dashed=0;html=1;strokeColor=none;fillColor=#434445;aspect=fixed;labelPosition=center;verticalLabelPosition=bottom;verticalAlign=top;align=center;outlineConnect=0;shape=mxgraph.vvd.nsx_dashboard;" vertex="1" parent="1">
          <mxGeometry x="1330" y="770" width="75.27" height="70" as="geometry" />
        </mxCell>
        <mxCell id="-L8Xeif0qXsBXoIUvL3A-51" value="Opção 1" style="text;html=1;strokeColor=none;fillColor=none;align=center;verticalAlign=middle;whiteSpace=wrap;rounded=0;fontStyle=1" vertex="1" parent="1">
          <mxGeometry x="380" y="260" width="180" height="30" as="geometry" />
        </mxCell>
        <mxCell id="-L8Xeif0qXsBXoIUvL3A-52" value="Opção 2" style="text;html=1;strokeColor=none;fillColor=none;align=center;verticalAlign=middle;whiteSpace=wrap;rounded=0;fontStyle=1" vertex="1" parent="1">
          <mxGeometry x="796" y="260" width="180" height="30" as="geometry" />
        </mxCell>
        <mxCell id="-L8Xeif0qXsBXoIUvL3A-53" value="Opção 2" style="text;html=1;strokeColor=none;fillColor=none;align=center;verticalAlign=middle;whiteSpace=wrap;rounded=0;fontStyle=1" vertex="1" parent="1">
          <mxGeometry x="1210" y="260" width="180" height="30" as="geometry" />
        </mxCell>
      </root>
    </mxGraphModel>
  </diagram>
</mxfile>
